<mxfile host="app.diagrams.net" modified="2024-03-27T08:30:17.231Z" agent="Mozilla/5.0 (X11; Ubuntu; Linux x86_64; rv:123.0) Gecko/20100101 Firefox/123.0" version="24.2.0" etag="dQgPnvDCMsnFfadtXgps" type="github">
  <diagram name="Page-1" id="soXFMGFUQX7BcOtAblXQ">
    <mxGraphModel>
      <root>
        <mxCell id="0" />
        <mxCell id="1" parent="0" />
      </root>
    </mxGraphModel>
  </diagram>
</mxfile>
